<svg xmlns="http://www.w3.org/2000/svg" viewBox="0 0 1200 675" role="img" aria-labelledby="title desc"><title id="title">Landing Page Examples</title><desc id="desc">Editorial website gallery preview for Landing Page Examples</desc><rect width="1200" height="675" fill="#ddd8cd"/><rect x="30" y="30" width="1140" height="615" rx="26" fill="#171717"/><circle cx="70" cy="66" r="7" fill="#ff735c"/><circle cx="94" cy="66" r="7" fill="#f4bd4f"/><circle cx="118" cy="66" r="7" fill="#61c46c"/><rect x="164" y="56" width="640" height="20" rx="10" fill="#f7f5ef" opacity=".1"/><text x="92" y="154" fill="hsl(186 70% 58%)" font-family="Arial,Helvetica,sans-serif" font-size="16" font-weight="700" letter-spacing="4">DESIGN DIRECTORY 13</text><text x="92" y="232" fill="#f7f5ef" font-family="Georgia,Times New Roman,serif" font-size="48" font-style="italic">Landing Page Examples</text><rect x="96" y="282" width="286" height="92" rx="12" fill="hsl(186 70% 58%)" opacity="0.82"/><rect x="114" y="302" width="174" height="9" rx="4.5" fill="#171717" opacity=".84"/><rect x="114" y="326" width="216" height="7" rx="3.5" fill="#171717" opacity=".45"/><rect x="422" y="282" width="286" height="92" rx="12" fill="hsl(314 58% 52%)" opacity="0.82"/><rect x="440" y="302" width="187" height="9" rx="4.5" fill="#171717" opacity=".84"/><rect x="440" y="326" width="223" height="7" rx="3.5" fill="#171717" opacity=".45"/><rect x="748" y="282" width="286" height="92" rx="12" fill="#f7f5ef" opacity="0.14"/><rect x="766" y="302" width="200" height="9" rx="4.5" fill="#f7f5ef" opacity=".84"/><rect x="766" y="326" width="230" height="7" rx="3.5" fill="#f7f5ef" opacity=".45"/><rect x="96" y="410" width="286" height="92" rx="12" fill="hsl(186 70% 58%)" opacity="0.82"/><rect x="114" y="430" width="101" height="9" rx="4.5" fill="#171717" opacity=".84"/><rect x="114" y="454" width="237" height="7" rx="3.5" fill="#171717" opacity=".45"/><rect x="422" y="410" width="286" height="92" rx="12" fill="hsl(314 58% 52%)" opacity="0.82"/><rect x="440" y="430" width="114" height="9" rx="4.5" fill="#171717" opacity=".84"/><rect x="440" y="454" width="174" height="7" rx="3.5" fill="#171717" opacity=".45"/><rect x="748" y="410" width="286" height="92" rx="12" fill="#f7f5ef" opacity="0.14"/><rect x="766" y="430" width="127" height="9" rx="4.5" fill="#f7f5ef" opacity=".84"/><rect x="766" y="454" width="181" height="7" rx="3.5" fill="#f7f5ef" opacity=".45"/><text x="92" y="606" fill="#f7f5ef" font-family="Arial,Helvetica,sans-serif" font-size="18" letter-spacing="1.5" opacity=".64">landings.dev</text><path d="M1030 568l42 0m-12-12 12 12-12 12" fill="none" stroke="hsl(186 70% 58%)" stroke-width="4" stroke-linecap="round" stroke-linejoin="round"/></svg>